# xmcd
#
# Track frame offsets: 
#        150
#        17187
#        32682
#        48974
#        72169
#        90777
#        126289
#        143519
#        158435
#        176408
#        198530
#        211853
#        238387
#
# Disc length: 3549 seconds
#
# Revision: 0
# Processed by: cddbd v1.5.2PL0 Copyright (c) Steve Scherf et al.
# Submitted via: ExactAudioCopy v1.3
#
DISCID=a50ddb0d
DTITLE=The Nighthawks - Blue Moon In Your Eyes - Live At The Barns At 
DTITLE=Wolf Trap
DYEAR=2006
DGENRE=Electric Blues, Blues Rock
TTITLE0=Woke Up This Morning
TTITLE1=Born in Chicago
TTITLE2=Thirty Days
TTITLE3=Jump into My Fire
TTITLE4=Big River
TTITLE5=Black Night 
TTITLE6=You Don't Love Me, You Don't Care
TTITLE7=None of That Stuff
TTITLE8=The Soul of a Man
TTITLE9=Cat Clothes
TTITLE10=Walkin' After Midnight
TTITLE11=Same Thing
TTITLE12=Can't Judge a Book by Looking at the Cover
EXTD=
EXTT0=
EXTT1=
EXTT2=
EXTT3=
EXTT4=
EXTT5=
EXTT6=
EXTT7=
EXTT8=
EXTT9=
EXTT10=
EXTT11=
EXTT12=
PLAYORDER=
